# Wavefront .OBJ file for tesselated shape: environmentA-1 path: C:\Users\mgramuglia\Desktop\JTARV\Mattia Drone\SW_world\environmentA.SLDPRT

g body_1
v 7.250000 1.650000 -0.800000
v 7.250000 2.000000 -0.800000
v 7.250000 2.000000 1.400000
v 7.250000 1.650000 1.400000
v 7.250000 2.000000 -0.800000
v 7.000000 2.000000 -0.800000
v 7.000000 2.000000 1.400000
v 7.250000 2.000000 1.400000
v 7.250000 1.650000 -0.800000
v 7.250000 1.650000 1.400000
v 8.450000 1.650000 1.400000
v 8.450000 1.650000 -0.800000
v 8.450000 2.000000 1.400000
v 8.450000 2.000000 -0.800000
v 8.450000 1.650000 -0.800000
v 8.450000 1.650000 1.400000
v 8.700000 2.000000 -0.800000
v 8.450000 2.000000 -0.800000
v 8.450000 2.000000 1.400000
v 8.700000 2.000000 1.400000
v 8.700000 0.000000 -0.800000
v 8.700000 2.000000 -0.800000
v 8.700000 2.000000 1.400000
v 8.700000 0.000000 1.400000
v 8.700000 0.000000 1.400000
v 5.000000 0.000000 1.400000
v 5.000000 0.000000 -0.800000
v 8.700000 0.000000 -0.800000
v 8.700000 2.000000 -0.800000
v 8.450000 1.500000 -0.800000
v 8.450000 1.650000 -0.800000
v 7.250000 1.650000 -0.800000
v 7.250000 1.500000 -0.800000
v 7.000000 2.000000 -0.800000
v 7.250000 2.000000 -0.800000
v 8.700000 0.000000 -0.800000
v 8.450000 0.100000 -0.800000
v 7.000000 0.100000 -0.800000
v 7.250000 0.100000 -0.800000
v 5.000000 0.000000 -0.800000
v 5.250000 0.100000 -0.800000
v 5.000000 2.000000 -0.800000
v 5.250000 2.000000 -0.800000
v 8.450000 2.000000 -0.800000
v 7.250000 1.500000 1.400000
v 8.450000 1.500000 1.400000
v 8.450000 1.650000 1.400000
v 8.700000 2.000000 1.400000
v 8.450000 2.000000 1.400000
v 8.700000 0.000000 1.400000
v 5.000000 0.000000 1.400000
v 7.250000 0.100000 1.400000
v 7.000000 0.100000 1.400000
v 7.250000 1.650000 1.400000
v 5.250000 0.100000 1.400000
v 8.450000 0.100000 1.400000
v 5.000000 2.000000 1.400000
v 7.000000 2.000000 1.400000
v 5.250000 2.000000 1.400000
v 7.250000 2.000000 1.400000
v 5.250000 2.000000 -0.800000
v 5.000000 2.000000 -0.800000
v 5.000000 2.000000 1.400000
v 5.250000 2.000000 1.400000
v 5.250000 0.100000 1.400000
v 7.000000 0.100000 1.400000
v 7.000000 0.100000 -0.800000
v 5.250000 0.100000 -0.800000
v 8.450000 0.100000 -0.800000
v 7.250000 0.100000 -0.800000
v 7.250000 0.100000 1.400000
v 8.450000 0.100000 1.400000
v 8.450000 0.100000 -0.800000
v 8.450000 0.100000 1.400000
v 8.450000 1.500000 1.400000
v 8.450000 1.500000 -0.800000
v 8.450000 1.500000 1.400000
v 7.250000 1.500000 1.400000
v 7.250000 1.500000 -0.800000
v 8.450000 1.500000 -0.800000
v 7.250000 0.100000 1.400000
v 7.250000 0.625000 0.225000
v 7.250000 0.625000 0.375000
v 7.250000 1.375000 0.375000
v 7.250000 1.500000 -0.800000
v 7.250000 1.375000 0.225000
v 7.250000 0.625000 0.825000
v 7.250000 0.100000 -0.800000
v 7.250000 0.625000 -0.225000
v 7.250000 1.500000 1.400000
v 7.250000 1.375000 0.825000
v 7.250000 1.375000 -0.225000
v 7.000000 0.100000 1.400000
v 7.000000 0.625000 0.825000
v 7.000000 0.625000 0.375000
v 7.000000 2.000000 -0.800000
v 7.000000 1.375000 -0.225000
v 7.000000 1.375000 0.225000
v 7.000000 0.625000 0.225000
v 7.000000 2.000000 1.400000
v 7.000000 1.375000 0.825000
v 7.000000 1.375000 0.375000
v 7.000000 0.100000 -0.800000
v 7.000000 0.625000 -0.225000
v 7.250000 0.625000 0.225000
v 7.000000 0.625000 0.225000
v 7.000000 1.375000 0.225000
v 7.250000 1.375000 0.225000
v 7.250000 0.625000 -0.225000
v 7.000000 0.625000 -0.225000
v 7.000000 0.625000 0.225000
v 7.250000 0.625000 0.225000
v 7.250000 1.375000 -0.225000
v 7.000000 1.375000 -0.225000
v 7.000000 0.625000 -0.225000
v 7.250000 0.625000 -0.225000
v 7.250000 1.375000 0.225000
v 7.000000 1.375000 0.225000
v 7.000000 1.375000 -0.225000
v 7.250000 1.375000 -0.225000
v 7.250000 1.375000 0.375000
v 7.000000 1.375000 0.375000
v 7.000000 0.625000 0.375000
v 7.250000 0.625000 0.375000
v 7.250000 0.625000 0.375000
v 7.000000 0.625000 0.375000
v 7.000000 0.625000 0.825000
v 7.250000 0.625000 0.825000
v 7.250000 0.625000 0.825000
v 7.000000 0.625000 0.825000
v 7.000000 1.375000 0.825000
v 7.250000 1.375000 0.825000
v 7.250000 1.375000 0.825000
v 7.000000 1.375000 0.825000
v 7.000000 1.375000 0.375000
v 7.250000 1.375000 0.375000
v 5.250000 0.100000 1.400000
v 5.250000 0.625000 0.225000
v 5.250000 0.625000 0.375000
v 5.250000 1.375000 0.375000
v 5.250000 2.000000 -0.800000
v 5.250000 1.375000 0.225000
v 5.250000 0.625000 0.825000
v 5.250000 0.100000 -0.800000
v 5.250000 0.625000 -0.225000
v 5.250000 2.000000 1.400000
v 5.250000 1.375000 0.825000
v 5.250000 1.375000 -0.225000
v 5.000000 0.000000 1.400000
v 5.000000 0.625000 0.825000
v 5.000000 0.625000 0.375000
v 5.000000 0.625000 0.225000
v 5.000000 2.000000 1.400000
v 5.000000 1.375000 0.825000
v 5.000000 2.000000 -0.800000
v 5.000000 1.375000 -0.225000
v 5.000000 1.375000 0.225000
v 5.000000 1.375000 0.375000
v 5.000000 0.000000 -0.800000
v 5.000000 0.625000 -0.225000
v 5.250000 0.625000 0.225000
v 5.000000 0.625000 0.225000
v 5.000000 1.375000 0.225000
v 5.250000 1.375000 0.225000
v 5.250000 0.625000 -0.225000
v 5.000000 0.625000 -0.225000
v 5.000000 0.625000 0.225000
v 5.250000 0.625000 0.225000
v 5.250000 1.375000 -0.225000
v 5.000000 1.375000 -0.225000
v 5.000000 0.625000 -0.225000
v 5.250000 0.625000 -0.225000
v 5.250000 1.375000 0.225000
v 5.000000 1.375000 0.225000
v 5.000000 1.375000 -0.225000
v 5.250000 1.375000 -0.225000
v 5.250000 1.375000 0.375000
v 5.000000 1.375000 0.375000
v 5.000000 0.625000 0.375000
v 5.250000 0.625000 0.375000
v 5.250000 0.625000 0.375000
v 5.000000 0.625000 0.375000
v 5.000000 0.625000 0.825000
v 5.250000 0.625000 0.825000
v 5.250000 0.625000 0.825000
v 5.000000 0.625000 0.825000
v 5.000000 1.375000 0.825000
v 5.250000 1.375000 0.825000
v 5.250000 1.375000 0.825000
v 5.000000 1.375000 0.825000
v 5.000000 1.375000 0.375000
v 5.250000 1.375000 0.375000
vn 1.000 0.000 0.000
vn 1.000 0.000 0.000
vn 1.000 0.000 0.000
vn 1.000 0.000 0.000
vn 0.000 1.000 0.000
vn 0.000 1.000 0.000
vn 0.000 1.000 0.000
vn 0.000 1.000 0.000
vn 0.000 1.000 0.000
vn 0.000 1.000 0.000
vn 0.000 1.000 0.000
vn 0.000 1.000 0.000
vn -1.000 0.000 0.000
vn -1.000 0.000 0.000
vn -1.000 0.000 0.000
vn -1.000 0.000 0.000
vn 0.000 1.000 0.000
vn 0.000 1.000 0.000
vn 0.000 1.000 0.000
vn 0.000 1.000 0.000
vn 1.000 0.000 0.000
vn 1.000 0.000 0.000
vn 1.000 0.000 0.000
vn 1.000 0.000 0.000
vn 0.000 -1.000 0.000
vn 0.000 -1.000 0.000
vn 0.000 -1.000 0.000
vn 0.000 -1.000 0.000
vn 0.000 0.000 -1.000
vn 0.000 0.000 -1.000
vn 0.000 0.000 -1.000
vn 0.000 0.000 -1.000
vn 0.000 0.000 -1.000
vn 0.000 0.000 -1.000
vn 0.000 0.000 -1.000
vn 0.000 0.000 -1.000
vn 0.000 0.000 -1.000
vn 0.000 0.000 -1.000
vn 0.000 0.000 -1.000
vn 0.000 0.000 -1.000
vn 0.000 0.000 -1.000
vn 0.000 0.000 -1.000
vn 0.000 0.000 -1.000
vn 0.000 0.000 -1.000
vn 0.000 0.000 1.000
vn 0.000 0.000 1.000
vn 0.000 0.000 1.000
vn 0.000 0.000 1.000
vn 0.000 0.000 1.000
vn 0.000 0.000 1.000
vn 0.000 0.000 1.000
vn 0.000 0.000 1.000
vn 0.000 0.000 1.000
vn 0.000 0.000 1.000
vn 0.000 0.000 1.000
vn 0.000 0.000 1.000
vn 0.000 0.000 1.000
vn 0.000 0.000 1.000
vn 0.000 0.000 1.000
vn 0.000 0.000 1.000
vn 0.000 1.000 0.000
vn 0.000 1.000 0.000
vn 0.000 1.000 0.000
vn 0.000 1.000 0.000
vn 0.000 1.000 0.000
vn 0.000 1.000 0.000
vn 0.000 1.000 0.000
vn 0.000 1.000 0.000
vn 0.000 1.000 0.000
vn 0.000 1.000 0.000
vn 0.000 1.000 0.000
vn 0.000 1.000 0.000
vn -1.000 0.000 0.000
vn -1.000 0.000 0.000
vn -1.000 0.000 0.000
vn -1.000 0.000 0.000
vn 0.000 -1.000 0.000
vn 0.000 -1.000 0.000
vn 0.000 -1.000 0.000
vn 0.000 -1.000 0.000
vn 1.000 0.000 0.000
vn 1.000 0.000 0.000
vn 1.000 0.000 0.000
vn 1.000 0.000 0.000
vn 1.000 0.000 0.000
vn 1.000 0.000 0.000
vn 1.000 0.000 0.000
vn 1.000 0.000 0.000
vn 1.000 0.000 0.000
vn 1.000 0.000 0.000
vn 1.000 0.000 0.000
vn 1.000 0.000 0.000
vn -1.000 0.000 0.000
vn -1.000 0.000 0.000
vn -1.000 0.000 0.000
vn -1.000 0.000 0.000
vn -1.000 0.000 0.000
vn -1.000 0.000 0.000
vn -1.000 0.000 0.000
vn -1.000 0.000 0.000
vn -1.000 0.000 0.000
vn -1.000 0.000 0.000
vn -1.000 0.000 0.000
vn -1.000 0.000 0.000
vn 0.000 0.000 -1.000
vn 0.000 0.000 -1.000
vn 0.000 0.000 -1.000
vn 0.000 0.000 -1.000
vn 0.000 1.000 0.000
vn 0.000 1.000 0.000
vn 0.000 1.000 0.000
vn 0.000 1.000 0.000
vn 0.000 0.000 1.000
vn 0.000 0.000 1.000
vn 0.000 0.000 1.000
vn 0.000 0.000 1.000
vn 0.000 -1.000 0.000
vn 0.000 -1.000 0.000
vn 0.000 -1.000 0.000
vn 0.000 -1.000 0.000
vn 0.000 0.000 1.000
vn 0.000 0.000 1.000
vn 0.000 0.000 1.000
vn 0.000 0.000 1.000
vn 0.000 1.000 0.000
vn 0.000 1.000 0.000
vn 0.000 1.000 0.000
vn 0.000 1.000 0.000
vn 0.000 0.000 -1.000
vn 0.000 0.000 -1.000
vn 0.000 0.000 -1.000
vn 0.000 0.000 -1.000
vn 0.000 -1.000 0.000
vn 0.000 -1.000 0.000
vn 0.000 -1.000 0.000
vn 0.000 -1.000 0.000
vn 1.000 0.000 0.000
vn 1.000 0.000 0.000
vn 1.000 0.000 0.000
vn 1.000 0.000 0.000
vn 1.000 0.000 0.000
vn 1.000 0.000 0.000
vn 1.000 0.000 0.000
vn 1.000 0.000 0.000
vn 1.000 0.000 0.000
vn 1.000 0.000 0.000
vn 1.000 0.000 0.000
vn 1.000 0.000 0.000
vn -1.000 0.000 0.000
vn -1.000 0.000 0.000
vn -1.000 0.000 0.000
vn -1.000 0.000 0.000
vn -1.000 0.000 0.000
vn -1.000 0.000 0.000
vn -1.000 0.000 0.000
vn -1.000 0.000 0.000
vn -1.000 0.000 0.000
vn -1.000 0.000 0.000
vn -1.000 0.000 0.000
vn -1.000 0.000 0.000
vn 0.000 0.000 -1.000
vn 0.000 0.000 -1.000
vn 0.000 0.000 -1.000
vn 0.000 0.000 -1.000
vn 0.000 1.000 0.000
vn 0.000 1.000 0.000
vn 0.000 1.000 0.000
vn 0.000 1.000 0.000
vn 0.000 0.000 1.000
vn 0.000 0.000 1.000
vn 0.000 0.000 1.000
vn 0.000 0.000 1.000
vn 0.000 -1.000 0.000
vn 0.000 -1.000 0.000
vn 0.000 -1.000 0.000
vn 0.000 -1.000 0.000
vn 0.000 0.000 1.000
vn 0.000 0.000 1.000
vn 0.000 0.000 1.000
vn 0.000 0.000 1.000
vn 0.000 1.000 0.000
vn 0.000 1.000 0.000
vn 0.000 1.000 0.000
vn 0.000 1.000 0.000
vn 0.000 0.000 -1.000
vn 0.000 0.000 -1.000
vn 0.000 0.000 -1.000
vn 0.000 0.000 -1.000
vn 0.000 -1.000 0.000
vn 0.000 -1.000 0.000
vn 0.000 -1.000 0.000
vn 0.000 -1.000 0.000
vt 0.8000 1.6500 0
vt 0.8000 2.0000 0
vt -1.4000 2.0000 0
vt -1.4000 1.6500 0
vt 0.0000 0.0000 0
vt 0.0000 -0.2500 0
vt -2.2000 -0.2500 0
vt -2.2000 0.0000 0
vt -2.2000 2.2051 0
vt 0.0000 2.2051 0
vt 0.0000 3.4051 0
vt -2.2000 3.4051 0
vt -1.4000 2.0000 0
vt 0.8000 2.0000 0
vt 0.8000 1.6500 0
vt -1.4000 1.6500 0
vt 0.0000 0.0000 0
vt 0.0000 -0.2500 0
vt -2.2000 -0.2500 0
vt -2.2000 0.0000 0
vt 0.8000 0.0000 0
vt 0.8000 2.0000 0
vt -1.4000 2.0000 0
vt -1.4000 0.0000 0
vt 2.2000 3.4500 0
vt 2.2000 -0.2500 0
vt 0.0000 -0.2500 0
vt 0.0000 3.4500 0
vt 3.4500 2.0000 0
vt 3.2000 1.5000 0
vt 3.2000 1.6500 0
vt 2.0000 1.6500 0
vt 2.0000 1.5000 0
vt 1.7500 2.0000 0
vt 2.0000 2.0000 0
vt 3.4500 0.0000 0
vt 3.2000 0.1000 0
vt 1.7500 0.1000 0
vt 2.0000 0.1000 0
vt -0.2500 0.0000 0
vt 0.0000 0.1000 0
vt -0.2500 2.0000 0
vt 0.0000 2.0000 0
vt 3.2000 2.0000 0
vt 2.0000 -1.5000 0
vt 3.2000 -1.5000 0
vt 3.2000 -1.6500 0
vt 3.4500 -2.0000 0
vt 3.2000 -2.0000 0
vt 3.4500 0.0000 0
vt -0.2500 0.0000 0
vt 2.0000 -0.1000 0
vt 1.7500 -0.1000 0
vt 2.0000 -1.6500 0
vt 0.0000 -0.1000 0
vt 3.2000 -0.1000 0
vt -0.2500 -2.0000 0
vt 1.7500 -2.0000 0
vt 0.0000 -2.0000 0
vt 2.0000 -2.0000 0
vt 0.0000 0.0000 0
vt 0.0000 -0.2500 0
vt -2.2000 -0.2500 0
vt -2.2000 0.0000 0
vt -1.1000 -2.8545 0
vt -1.1000 -1.1045 0
vt 1.1000 -1.1045 0
vt 1.1000 -2.8545 0
vt 0.0000 3.4023 0
vt 0.0000 2.2023 0
vt 2.2000 2.2023 0
vt 2.2000 3.4023 0
vt 0.8000 0.1000 0
vt -1.4000 0.1000 0
vt -1.4000 1.5000 0
vt 0.8000 1.5000 0
vt 0.0000 3.4051 0
vt 0.0000 2.2051 0
vt 2.2000 2.2051 0
vt 2.2000 3.4051 0
vt -1.4000 0.1000 0
vt -0.2250 0.6250 0
vt -0.3750 0.6250 0
vt -0.3750 1.3750 0
vt 0.8000 1.5000 0
vt -0.2250 1.3750 0
vt -0.8250 0.6250 0
vt 0.8000 0.1000 0
vt 0.2250 0.6250 0
vt -1.4000 1.5000 0
vt -0.8250 1.3750 0
vt 0.2250 1.3750 0
vt -1.4000 0.1000 0
vt -0.8250 0.6250 0
vt -0.3750 0.6250 0
vt 0.8000 2.0000 0
vt 0.2250 1.3750 0
vt -0.2250 1.3750 0
vt -0.2250 0.6250 0
vt -1.4000 2.0000 0
vt -0.8250 1.3750 0
vt -0.3750 1.3750 0
vt 0.8000 0.1000 0
vt 0.2250 0.6250 0
vt 0.0000 0.0000 0
vt 0.0000 -0.2500 0
vt 0.7500 -0.2500 0
vt 0.7500 0.0000 0
vt 0.0000 0.0000 0
vt 0.0000 -0.2500 0
vt 0.4500 -0.2500 0
vt 0.4500 0.0000 0
vt -0.7500 0.0000 0
vt -0.7500 -0.2500 0
vt 0.0000 -0.2500 0
vt 0.0000 0.0000 0
vt -0.4500 0.0000 0
vt -0.4500 -0.2500 0
vt 0.0000 -0.2500 0
vt 0.0000 0.0000 0
vt 0.7500 0.0000 0
vt 0.7500 0.2500 0
vt 0.0000 0.2500 0
vt 0.0000 0.0000 0
vt 0.4500 0.0000 0
vt 0.4500 0.2500 0
vt 0.0000 0.2500 0
vt 0.0000 0.0000 0
vt 0.0000 0.0000 0
vt 0.0000 0.2500 0
vt -0.7500 0.2500 0
vt -0.7500 0.0000 0
vt 0.0000 0.0000 0
vt 0.0000 0.2500 0
vt -0.4500 0.2500 0
vt -0.4500 0.0000 0
vt -1.4000 0.1000 0
vt -0.2250 0.6250 0
vt -0.3750 0.6250 0
vt -0.3750 1.3750 0
vt 0.8000 2.0000 0
vt -0.2250 1.3750 0
vt -0.8250 0.6250 0
vt 0.8000 0.1000 0
vt 0.2250 0.6250 0
vt -1.4000 2.0000 0
vt -0.8250 1.3750 0
vt 0.2250 1.3750 0
vt -1.4000 0.0000 0
vt -0.8250 0.6250 0
vt -0.3750 0.6250 0
vt -0.2250 0.6250 0
vt -1.4000 2.0000 0
vt -0.8250 1.3750 0
vt 0.8000 2.0000 0
vt 0.2250 1.3750 0
vt -0.2250 1.3750 0
vt -0.3750 1.3750 0
vt 0.8000 0.0000 0
vt 0.2250 0.6250 0
vt 0.0000 0.0000 0
vt 0.0000 -0.2500 0
vt 0.7500 -0.2500 0
vt 0.7500 0.0000 0
vt 0.0000 0.0000 0
vt 0.0000 -0.2500 0
vt 0.4500 -0.2500 0
vt 0.4500 0.0000 0
vt -0.7500 0.0000 0
vt -0.7500 -0.2500 0
vt 0.0000 -0.2500 0
vt 0.0000 0.0000 0
vt -0.4500 0.0000 0
vt -0.4500 -0.2500 0
vt 0.0000 -0.2500 0
vt 0.0000 0.0000 0
vt 0.7500 0.0000 0
vt 0.7500 0.2500 0
vt 0.0000 0.2500 0
vt 0.0000 0.0000 0
vt 0.4500 0.0000 0
vt 0.4500 0.2500 0
vt 0.0000 0.2500 0
vt 0.0000 0.0000 0
vt 0.0000 0.0000 0
vt 0.0000 0.2500 0
vt -0.7500 0.2500 0
vt -0.7500 0.0000 0
vt 0.0000 0.0000 0
vt 0.0000 0.2500 0
vt -0.4500 0.2500 0
vt -0.4500 0.0000 0
f 1/1/1 3/3/3 4/4/4
f 3/3/3 1/1/1 2/2/2
f 15/15/15 13/13/13 14/14/14
f 13/13/13 15/15/15 16/16/16
f 85/85/85 86/86/86 92/92/92
f 85/85/85 89/89/89 88/88/88
f 90/90/90 87/87/87 91/91/91
f 89/89/89 85/85/85 92/92/92
f 88/88/88 82/82/82 81/81/81
f 87/87/87 90/90/90 81/81/81
f 84/84/84 90/90/90 91/91/91
f 82/82/82 88/88/88 89/89/89
f 83/83/83 81/81/81 82/82/82
f 82/82/82 84/84/84 83/83/83
f 86/86/86 85/85/85 84/84/84
f 84/84/84 82/82/82 86/86/86
f 81/81/81 83/83/83 87/87/87
f 90/90/90 84/84/84 85/85/85
f 141/141/141 142/142/142 148/148/148
f 140/140/140 138/138/138 142/142/142
f 137/137/137 139/139/139 143/143/143
f 138/138/138 144/144/144 145/145/145
f 140/140/140 146/146/146 147/147/147
f 147/147/147 137/137/137 143/143/143
f 139/139/139 137/137/137 138/138/138
f 138/138/138 140/140/140 139/139/139
f 144/144/144 138/138/138 137/137/137
f 148/148/148 144/144/144 141/141/141
f 137/137/137 147/147/147 146/146/146
f 144/144/144 148/148/148 145/145/145
f 146/146/146 140/140/140 141/141/141
f 142/142/142 141/141/141 140/140/140
f 157/157/157 155/155/155 156/156/156
f 159/159/159 152/152/152 160/160/160
f 158/158/158 153/153/153 155/155/155
f 152/152/152 159/159/159 149/149/149
f 155/155/155 160/160/160 156/156/156
f 160/160/160 155/155/155 159/159/159
f 158/158/158 157/157/157 151/151/151
f 153/153/153 158/158/158 154/154/154
f 155/155/155 157/157/157 158/158/158
f 153/153/153 150/150/150 149/149/149
f 151/151/151 149/149/149 150/150/150
f 149/149/149 151/151/151 152/152/152
f 150/150/150 153/153/153 154/154/154
f 152/152/152 151/151/151 157/157/157
f 41/41/41 42/42/42 43/43/43
f 29/29/29 31/31/31 44/44/44
f 31/31/31 29/29/29 30/30/30
f 40/40/40 38/38/38 36/36/36
f 38/38/38 40/40/40 41/41/41
f 38/38/38 33/33/33 39/39/39
f 36/36/36 39/39/39 37/37/37
f 39/39/39 36/36/36 38/38/38
f 36/36/36 30/30/30 29/29/29
f 30/30/30 36/36/36 37/37/37
f 34/34/34 32/32/32 33/33/33
f 32/32/32 34/34/34 35/35/35
f 32/32/32 30/30/30 33/33/33
f 30/30/30 32/32/32 31/31/31
f 42/42/42 41/41/41 40/40/40
f 33/33/33 38/38/38 34/34/34
f 63/63/63 61/61/61 62/62/62
f 61/61/61 63/63/63 64/64/64
f 27/27/27 25/25/25 26/26/26
f 25/25/25 27/27/27 28/28/28
f 163/163/163 161/161/161 162/162/162
f 161/161/161 163/163/163 164/164/164
f 167/167/167 165/165/165 166/166/166
f 165/165/165 167/167/167 168/168/168
f 169/169/169 171/171/171 172/172/172
f 171/171/171 169/169/169 170/170/170
f 173/173/173 175/175/175 176/176/176
f 175/175/175 173/173/173 174/174/174
f 67/67/67 65/65/65 66/66/66
f 65/65/65 67/67/67 68/68/68
f 102/102/102 98/98/98 95/95/95
f 100/100/100 102/102/102 101/101/101
f 97/97/97 103/103/103 104/104/104
f 103/103/103 97/97/97 96/96/96
f 99/99/99 103/103/103 93/93/93
f 103/103/103 99/99/99 104/104/104
f 99/99/99 95/95/95 98/98/98
f 93/93/93 101/101/101 94/94/94
f 95/95/95 93/93/93 94/94/94
f 98/98/98 96/96/96 97/97/97
f 93/93/93 95/95/95 99/99/99
f 101/101/101 93/93/93 100/100/100
f 102/102/102 100/100/100 96/96/96
f 96/96/96 98/98/98 102/102/102
f 5/5/5 7/7/7 8/8/8
f 7/7/7 5/5/5 6/6/6
f 105/105/105 107/107/107 108/108/108
f 107/107/107 105/105/105 106/106/106
f 111/111/111 109/109/109 110/110/110
f 109/109/109 111/111/111 112/112/112
f 115/115/115 113/113/113 114/114/114
f 113/113/113 115/115/115 116/116/116
f 117/117/117 119/119/119 120/120/120
f 119/119/119 117/117/117 118/118/118
f 52/52/52 50/50/50 56/56/56
f 55/55/55 57/57/57 51/51/51
f 45/45/45 53/53/53 52/52/52
f 45/45/45 47/47/47 54/54/54
f 47/47/47 45/45/45 46/46/46
f 47/47/47 48/48/48 49/49/49
f 46/46/46 50/50/50 48/48/48
f 48/48/48 47/47/47 46/46/46
f 53/53/53 45/45/45 54/54/54
f 51/51/51 53/53/53 55/55/55
f 58/58/58 54/54/54 60/60/60
f 57/57/57 55/55/55 59/59/59
f 50/50/50 46/46/46 56/56/56
f 54/54/54 58/58/58 53/53/53
f 50/50/50 52/52/52 51/51/51
f 53/53/53 51/51/51 52/52/52
f 179/179/179 177/177/177 178/178/178
f 177/177/177 179/179/179 180/180/180
f 183/183/183 181/181/181 182/182/182
f 181/181/181 183/183/183 184/184/184
f 185/185/185 187/187/187 188/188/188
f 187/187/187 185/185/185 186/186/186
f 191/191/191 189/189/189 190/190/190
f 189/189/189 191/191/191 192/192/192
f 123/123/123 121/121/121 122/122/122
f 121/121/121 123/123/123 124/124/124
f 127/127/127 125/125/125 126/126/126
f 125/125/125 127/127/127 128/128/128
f 129/129/129 131/131/131 132/132/132
f 131/131/131 129/129/129 130/130/130
f 135/135/135 133/133/133 134/134/134
f 133/133/133 135/135/135 136/136/136
f 71/71/71 69/69/69 70/70/70
f 69/69/69 71/71/71 72/72/72
f 75/75/75 73/73/73 74/74/74
f 73/73/73 75/75/75 76/76/76
f 17/17/17 19/19/19 20/20/20
f 19/19/19 17/17/17 18/18/18
f 21/21/21 23/23/23 24/24/24
f 23/23/23 21/21/21 22/22/22
f 11/11/11 9/9/9 10/10/10
f 9/9/9 11/11/11 12/12/12
f 79/79/79 77/77/77 78/78/78
f 77/77/77 79/79/79 80/80/80
